<svg id="Logo" xmlns="http://www.w3.org/2000/svg" width="332.944" height="38.031" viewBox="0 0 332.944 38.031">
  <g id="Group_2962" data-name="Group 2962">
    <path id="Path_9207" data-name="Path 9207" d="M-235.171,134H-214.8a8.811,8.811,0,0,1,8.829,8.829V163.2a8.811,8.811,0,0,1-8.829,8.829h-20.374A8.811,8.811,0,0,1-244,163.2V142.829A8.811,8.811,0,0,1-235.171,134Zm20.374,35.314a6.087,6.087,0,0,0,6.112-6.112V142.829a6.087,6.087,0,0,0-6.112-6.112h-20.374a6.087,6.087,0,0,0-6.112,6.112V163.2a6.087,6.087,0,0,0,6.112,6.112Z" transform="translate(244 -134)"/>
    <path id="Path_9208" data-name="Path 9208" d="M-227.922,142.3h0a7.883,7.883,0,0,1,7.878,7.878h0a7.883,7.883,0,0,1-7.878,7.878h0a7.883,7.883,0,0,1-7.878-7.878h0A7.883,7.883,0,0,1-227.922,142.3Z" transform="translate(246.938 -131.027)"/>
  </g>
  <g id="Group_2963" data-name="Group 2963" transform="translate(54.098 10.09)">
    <path id="Path_9209" data-name="Path 9209" d="M39.8,16.093A8.872,8.872,0,0,1,48.629,7.4a9.161,9.161,0,0,1,6.384,2.716l-2.173,2.037a5.57,5.57,0,0,0-4.211-1.9,5.912,5.912,0,0,0,0,11.817,6.088,6.088,0,0,0,4.211-1.9L55.012,22.2a8.916,8.916,0,0,1-6.384,2.716A9.083,9.083,0,0,1,39.8,16.093Z" transform="translate(-39.8 -7.4)"/>
    <path id="Path_9210" data-name="Path 9210" d="M51.8,16.093a8.83,8.83,0,0,1,17.657,0,8.83,8.83,0,0,1-17.657,0Zm14.533,0a5.769,5.769,0,0,0-5.7-5.84,5.912,5.912,0,1,0,5.7,5.84Z" transform="translate(-35.501 -7.4)"/>
    <path id="Path_9211" data-name="Path 9211" d="M66.9,7.7h3.124l8.829,11.817V7.7h2.988V24.406H78.853L70.024,12.59V24.406H66.9Z" transform="translate(-30.092 -7.293)"/>
    <path id="Path_9212" data-name="Path 9212" d="M85.233,10.416H79.8V7.7H93.654v2.852H88.221V24.406H85.233Z" transform="translate(-25.471 -7.293)"/>
    <path id="Path_9213" data-name="Path 9213" d="M94.788,10.416v4.075h8.693v2.852H94.788V21.69h9.643v2.716H91.8V7.7h12.632v2.852H94.788Z" transform="translate(-21.172 -7.293)"/>
    <path id="Path_9214" data-name="Path 9214" d="M103.2,7.7h3.124l8.829,11.817V7.7h2.988V24.406h-2.988L106.324,12.59V24.406H103.2Z" transform="translate(-17.088 -7.293)"/>
    <path id="Path_9215" data-name="Path 9215" d="M121.533,10.416H116.1V7.7h13.854v2.852h-5.433V24.406h-2.988Z" transform="translate(-12.466 -7.293)"/>
    <path id="Path_9216" data-name="Path 9216" d="M128.2,7.7h5.976c5.569,0,9.508,3.531,9.508,8.421s-3.939,8.421-9.508,8.421H128.2Zm6.248,13.99c3.531,0,5.976-2.309,5.976-5.7,0-3.26-2.445-5.569-5.976-5.569h-3.124V21.69Z" transform="translate(-8.132 -7.293)"/>
    <path id="Path_9217" data-name="Path 9217" d="M144.588,10.416v4.075h8.693v2.852h-8.693V21.69h9.644v2.716H141.6V7.7h12.632v2.852h-9.644Z" transform="translate(-3.331 -7.293)"/>
    <path id="Path_9218" data-name="Path 9218" d="M157.633,10.416H152.2V7.7h13.854v2.852h-5.433V24.406h-2.988Z" transform="translate(0.466 -7.293)"/>
    <path id="Path_9219" data-name="Path 9219" d="M167.188,10.416v4.075h8.693v2.852h-8.693V21.69h9.643v2.716H164.2V7.7h12.632v2.852h-9.643Z" transform="translate(4.765 -7.293)"/>
    <path id="Path_9220" data-name="Path 9220" d="M175,16.093A8.872,8.872,0,0,1,183.829,7.4a9.161,9.161,0,0,1,6.384,2.716l-2.173,2.037a5.569,5.569,0,0,0-4.211-1.9,5.912,5.912,0,0,0,0,11.817,6.088,6.088,0,0,0,4.211-1.9l2.173,2.037a8.916,8.916,0,0,1-6.384,2.716A9.083,9.083,0,0,1,175,16.093Z" transform="translate(8.634 -7.4)"/>
    <path id="Path_9221" data-name="Path 9221" d="M192.533,10.416H187.1V7.7h13.854v2.852h-5.433V24.406h-2.988Z" transform="translate(12.968 -7.293)"/>
    <path id="Path_9222" data-name="Path 9222" d="M197.9,16.093a8.83,8.83,0,0,1,17.657,0,8.83,8.83,0,0,1-17.657,0Zm14.533,0a5.769,5.769,0,0,0-5.7-5.84,5.912,5.912,0,1,0,5.7,5.84Z" transform="translate(16.837 -7.4)"/>
    <path id="Path_9223" data-name="Path 9223" d="M223.023,24.406l-3.939-5.7h-3.26v5.7H212.7V7.7h7.335c3.531,0,6.248,2.309,6.248,5.569a5.5,5.5,0,0,1-4.075,5.3l4.211,5.976h-3.4Zm-7.2-8.421h3.939c2.037,0,3.531-1.087,3.531-2.716,0-1.766-1.494-2.716-3.531-2.716h-3.939Z" transform="translate(22.139 -7.293)"/>
    <path id="Path_9224" data-name="Path 9224" d="M224.5,19.3a1.943,1.943,0,0,1,1.9-1.9,1.9,1.9,0,1,1-1.9,1.9Z" transform="translate(26.366 -3.818)"/>
    <path id="Path_9225" data-name="Path 9225" d="M241.367,21.454h-8.149L232,24.442h-3.4L235.663,7.6h3.4l7.063,16.842h-3.4Zm-1.087-2.581-2.988-7.063L234.3,18.873Z" transform="translate(27.835 -7.328)"/>
    <path id="Path_9226" data-name="Path 9226" d="M242.9,7.7h2.988V24.406H242.9Z" transform="translate(32.958 -7.293)"/>
  </g>
</svg>
