<svg id="artificial-intelligence" xmlns="http://www.w3.org/2000/svg" width="56.348" height="56.348" viewBox="0 0 56.348 56.348">
  <path id="Path_9236" data-name="Path 9236" d="M212.651,226A1.653,1.653,0,0,0,211,227.651V229.3h3.3v-1.651A1.653,1.653,0,0,0,212.651,226Z" transform="translate(-187.778 -201.128)" fill="#eb661e"/>
  <path id="Path_9237" data-name="Path 9237" d="M56.348,29.825v-3.3H43.031v-3.3H53.046v-3.3H43.031v-6.6h-6.6V3.3h-3.3V13.317h-3.3V0h-3.3V13.317h-3.3V3.3h-3.3V13.317h-6.6v6.6H3.3v3.3H13.317v3.3H0v3.3H13.317v3.3H3.3v3.3H13.317v6.6h6.6V53.046h3.3V43.031h3.3V56.348h3.3V43.031h3.3V53.046h3.3V43.031h6.6v-6.6H53.046v-3.3H43.031v-3.3Zm-19.92-8.254V34.777h-3.3V21.571Zm-13.206,9.9v3.3h-3.3V26.523a4.952,4.952,0,0,1,9.9,0v8.254h-3.3v-3.3Z" fill="#eb661e"/>
</svg>
