<svg xmlns="http://www.w3.org/2000/svg" width="38.031" height="38.031" viewBox="0 0 38.031 38.031"><path d="M-235.171,134H-214.8a8.811,8.811,0,0,1,8.829,8.829V163.2a8.811,8.811,0,0,1-8.829,8.829h-20.374A8.811,8.811,0,0,1-244,163.2V142.829A8.811,8.811,0,0,1-235.171,134Zm20.374,35.314a6.087,6.087,0,0,0,6.112-6.112V142.829a6.087,6.087,0,0,0-6.112-6.112h-20.374a6.087,6.087,0,0,0-6.112,6.112V163.2a6.087,6.087,0,0,0,6.112,6.112Z" transform="translate(244 -134)"/><path d="M-227.922,142.3h0a7.883,7.883,0,0,1,7.878,7.878h0a7.883,7.883,0,0,1-7.878,7.878h0a7.883,7.883,0,0,1-7.878-7.878h0A7.883,7.883,0,0,1-227.922,142.3Z" transform="translate(246.938 -131.027)"/></svg>